name rise44.8762peak52.3436fall86.788.mot
datacolumns 19
datarows 12
range 17.30493300000000 17.32326100000000
endheader
time	ground_force1_vx	ground_force1_vy	ground_force1_vz	ground_force1_px	ground_force1_py	ground_force1_pz	ground_force2_vx	ground_force2_vy	ground_force2_vz	ground_force2_px	ground_force2_py	ground_force2_pz	ground_torque1_x	ground_torque1_y	ground_torque1_z	ground_torque2_x	ground_torque2_y	ground_torque2_z	
17.30493300000000	4.79022000000000	702.35259699999995	36.60457800000000	0.17412300000000	0.00000000000000	0.10513700000000	0.00000000000000	0.00000000000000	0.00000000000000	0.00000000000000	0.00000000000000	0.00000000000000	0.00000000000000	11.91614300000000	0.00000000000000	0.00000000000000	0.00000000000000	0.00000000000000	
17.30660400000000	4.29079800000000	703.72940100000005	36.67918000000000	0.17304600000000	0.00000000000000	0.10513300000000	0.00000000000000	0.00000000000000	0.00000000000000	0.00000000000000	0.00000000000000	0.00000000000000	0.00000000000000	11.99292100000000	0.00000000000000	0.00000000000000	0.00000000000000	0.00000000000000	
17.30826200000000	3.78199600000000	705.12185899999997	36.75497100000000	0.17196800000000	0.00000000000000	0.10512900000000	0.00000000000000	0.00000000000000	0.00000000000000	0.00000000000000	0.00000000000000	0.00000000000000	0.00000000000000	12.07254400000000	0.00000000000000	0.00000000000000	0.00000000000000	0.00000000000000	
17.30992900000000	3.26385700000000	706.52875200000005	36.83164100000000	0.17088700000000	0.00000000000000	0.10512500000000	0.00000000000000	0.00000000000000	0.00000000000000	0.00000000000000	0.00000000000000	0.00000000000000	0.00000000000000	12.15491000000000	0.00000000000000	0.00000000000000	0.00000000000000	0.00000000000000	
17.31160000000000	2.73644700000000	707.94895699999995	36.90889300000000	0.16980600000000	0.00000000000000	0.10512300000000	0.00000000000000	0.00000000000000	0.00000000000000	0.00000000000000	0.00000000000000	0.00000000000000	0.00000000000000	12.23991800000000	0.00000000000000	0.00000000000000	0.00000000000000	0.00000000000000	
17.31326900000000	2.19986500000000	709.38145399999996	36.98645300000000	0.16872500000000	0.00000000000000	0.10512000000000	0.00000000000000	0.00000000000000	0.00000000000000	0.00000000000000	0.00000000000000	0.00000000000000	0.00000000000000	12.32746200000000	0.00000000000000	0.00000000000000	0.00000000000000	0.00000000000000	
17.31493600000000	1.65423000000000	710.82531800000004	37.06406700000000	0.16764400000000	0.00000000000000	0.10511800000000	0.00000000000000	0.00000000000000	0.00000000000000	0.00000000000000	0.00000000000000	0.00000000000000	0.00000000000000	12.41743800000000	0.00000000000000	0.00000000000000	0.00000000000000	0.00000000000000	
17.31660200000000	1.09969200000000	712.27972499999998	37.14150100000000	0.16656400000000	0.00000000000000	0.10511700000000	0.00000000000000	0.00000000000000	0.00000000000000	0.00000000000000	0.00000000000000	0.00000000000000	0.00000000000000	12.50974300000000	0.00000000000000	0.00000000000000	0.00000000000000	0.00000000000000	
17.31826200000000	0.53642200000000	713.74393999999995	37.21854500000000	0.16548600000000	0.00000000000000	0.10511500000000	0.00000000000000	0.00000000000000	0.00000000000000	0.00000000000000	0.00000000000000	0.00000000000000	0.00000000000000	12.60426800000000	0.00000000000000	0.00000000000000	0.00000000000000	0.00000000000000	
17.31993100000000	-0.03538100000000	715.21732199999997	37.29501300000000	0.16441000000000	0.00000000000000	0.10511400000000	0.00000000000000	0.00000000000000	0.00000000000000	0.00000000000000	0.00000000000000	0.00000000000000	0.00000000000000	12.70090800000000	0.00000000000000	0.00000000000000	0.00000000000000	0.00000000000000	
17.32160300000000	-0.61549900000000	716.69931599999995	37.37074300000000	0.16333700000000	0.00000000000000	0.10511300000000	0.00000000000000	0.00000000000000	0.00000000000000	0.00000000000000	0.00000000000000	0.00000000000000	0.00000000000000	12.79955600000000	0.00000000000000	0.00000000000000	0.00000000000000	0.00000000000000	
17.32326100000000	-1.20368900000000	718.18945099999996	37.44559700000000	0.16226800000000	0.00000000000000	0.10511300000000	0.00000000000000	0.00000000000000	0.00000000000000	0.00000000000000	0.00000000000000	0.00000000000000	0.00000000000000	12.90010200000000	0.00000000000000	0.00000000000000	0.00000000000000	0.00000000000000	
